<svg width="41" height="33" viewBox="0 0 41 33" fill="none" xmlns="http://www.w3.org/2000/svg">
<g filter="url(#filter0_d)">
<path fill-rule="evenodd" clip-rule="evenodd" d="M32.875 2.0625H8.125C7.57799 2.0625 7.05339 2.2798 6.66659 2.66659C6.2798 3.05339 6.0625 3.57799 6.0625 4.125V20.625C6.0625 21.172 6.2798 21.6966 6.66659 22.0834C7.05339 22.4702 7.57799 22.6875 8.125 22.6875H32.875C33.422 22.6875 33.9466 22.4702 34.3334 22.0834C34.7202 21.6966 34.9375 21.172 34.9375 20.625V4.125C34.9375 3.57799 34.7202 3.05339 34.3334 2.66659C33.9466 2.2798 33.422 2.0625 32.875 2.0625ZM8.125 0C7.03098 0 5.98177 0.434597 5.20818 1.20818C4.4346 1.98177 4 3.03098 4 4.125L4 20.625C4 21.719 4.4346 22.7682 5.20818 23.5418C5.98177 24.3154 7.03098 24.75 8.125 24.75H32.875C33.969 24.75 35.0182 24.3154 35.7918 23.5418C36.5654 22.7682 37 21.719 37 20.625V4.125C37 3.03098 36.5654 1.98177 35.7918 1.20818C35.0182 0.434597 33.969 0 32.875 0H8.125Z" fill="#264653"/>
<path d="M12.25 14.4375H10.1875C9.04841 14.4375 8.125 15.3609 8.125 16.5V18.5625C8.125 19.7016 9.04841 20.625 10.1875 20.625H12.25C13.3891 20.625 14.3125 19.7016 14.3125 18.5625V16.5C14.3125 15.3609 13.3891 14.4375 12.25 14.4375Z" fill="#264653"/>
<path d="M6.0625 6.1875H34.9375V10.3125H6.0625V6.1875Z" fill="#264653"/>
</g>
<defs>
<filter id="filter0_d" x="0" y="0" width="41" height="32.75" filterUnits="userSpaceOnUse" color-interpolation-filters="sRGB">
<feFlood flood-opacity="0" result="BackgroundImageFix"/>
<feColorMatrix in="SourceAlpha" type="matrix" values="0 0 0 0 0 0 0 0 0 0 0 0 0 0 0 0 0 0 127 0"/>
<feOffset dy="4"/>
<feGaussianBlur stdDeviation="2"/>
<feColorMatrix type="matrix" values="0 0 0 0 0.595833 0 0 0 0 0.595833 0 0 0 0 0.595833 0 0 0 0.25 0"/>
<feBlend mode="normal" in2="BackgroundImageFix" result="effect1_dropShadow"/>
<feBlend mode="normal" in="SourceGraphic" in2="effect1_dropShadow" result="shape"/>
</filter>
</defs>
</svg>
