<svg width="25" height="25" viewBox="0 0 25 25" fill="none" xmlns="http://www.w3.org/2000/svg">
<path d="M23.9474 5.27142e-05C24.2265 5.27142e-05 24.4943 0.131749 24.6917 0.366169C24.8891 0.600589 25 0.91853 25 1.25005C25 1.58157 24.8891 1.89951 24.6917 2.13393C24.4943 2.36835 24.2265 2.50005 23.9474 2.50005H21.6105L18.8484 15.625C18.6137 16.7375 17.7747 17.5 16.8095 17.5H4.73579C3.78526 17.5 2.97789 16.75 2.72842 15.6625L0 3.75004H17.6316L17.1053 6.25004H2.73053L4.73684 15H16.8105L19.5716 1.87505C19.6856 1.33659 19.9486 0.859149 20.3182 0.519194C20.6879 0.179239 21.143 -0.00356616 21.6105 5.27142e-05H23.9474ZM6.05263 17.5C7.78421 17.5 9.21053 19.1938 9.21053 21.25C9.21053 23.3063 7.78421 25 6.05263 25C4.32105 25 2.89474 23.3063 2.89474 21.25C2.89474 19.1938 4.32105 17.5 6.05263 17.5ZM15.5263 17.5C17.2579 17.5 18.6842 19.1938 18.6842 21.25C18.6842 23.3063 17.2579 25 15.5263 25C13.7947 25 12.3684 23.3063 12.3684 21.25C12.3684 19.1938 13.7947 17.5 15.5263 17.5ZM15.5263 20C14.9326 20 14.4737 20.545 14.4737 21.25C14.4737 21.955 14.9326 22.5 15.5263 22.5C16.12 22.5 16.5789 21.955 16.5789 21.25C16.5789 20.545 16.12 20 15.5263 20ZM6.05263 20C5.45895 20 5 20.545 5 21.25C5 21.955 5.45895 22.5 6.05263 22.5C6.64631 22.5 7.10526 21.955 7.10526 21.25C7.10526 20.545 6.64631 20 6.05263 20Z" fill="#616161"/>
</svg>
