<svg width="12" height="11" viewBox="0 0 12 11" fill="none" xmlns="http://www.w3.org/2000/svg">
<path d="M7.69034 4.79058H5.36207V5.70778H7.19647V6.76608H5.36207V8.31826H4.16266V4.72003H3.69136C3.63671 4.71824 3.58225 4.7274 3.53119 4.74698C3.48013 4.76656 3.43351 4.79615 3.39406 4.83402C3.35462 4.87189 3.32314 4.91727 3.3015 4.96748C3.27986 5.0177 3.26848 5.07174 3.26804 5.12642C3.27028 5.21699 3.29845 5.30502 3.34923 5.38006C3.4 5.4551 3.47124 5.51399 3.55449 5.54974L3.24758 6.59817C2.60131 6.42037 2.11167 5.89898 2.11167 5.137C2.11167 4.19723 2.87435 3.66314 3.71253 3.66314H7.69104L7.69034 4.79058ZM0 10.9993H11.0014V0H0V10.9993Z" fill="#4388C7"/>
</svg>
