<svg width="25" height="25" viewBox="0 0 25 25" fill="none" xmlns="http://www.w3.org/2000/svg">
<path fill-rule="evenodd" clip-rule="evenodd" d="M16.7382 15.7235L16.3379 15.3376C17.7387 13.7077 18.5821 11.5922 18.5821 9.29096C18.5821 4.15941 14.4226 0 9.29106 0C4.15954 0 0 4.15941 0 9.29096C0 14.4225 4.15954 18.5824 9.29106 18.5824C11.5925 18.5824 13.7079 17.7385 15.3373 16.3382L15.7233 16.7378V17.8675L22.8702 25L25 22.87L17.8674 15.7235H16.7382ZM2.85874 9.29096C2.85874 5.73179 5.73187 2.85887 9.29106 2.85887C12.8502 2.85887 15.7233 5.73179 15.7233 9.29096C15.7233 12.8497 12.8502 15.7235 9.29106 15.7235C5.73187 15.7235 2.85874 12.8497 2.85874 9.29096Z" fill="#616161"/>
</svg>
