<?xml version="1.0" standalone="no"?>
<!DOCTYPE svg PUBLIC "-//W3C//DTD SVG 20010904//EN"
 "http://www.w3.org/TR/2001/REC-SVG-20010904/DTD/svg10.dtd">
<svg version="1.0" xmlns="http://www.w3.org/2000/svg"
 width="289.000000pt" height="289.000000pt" viewBox="0 0 289.000000 289.000000"
 preserveAspectRatio="xMidYMid meet">
<metadata>
Created by potrace 1.11, written by Peter Selinger 2001-2013
</metadata>
<g transform="translate(0.000000,289.000000) scale(0.100000,-0.100000)"
fill="#000000" stroke="none">
<path d="M305 2661 c-54 -25 -72 -53 -131 -205 -79 -206 -140 -444 -160 -627
-35 -317 24 -610 176 -875 165 -288 453 -522 802 -653 306 -115 646 -134 983
-56 339 79 649 278 812 521 63 93 61 94 -28 7 -101 -99 -186 -165 -269 -212
-123 -68 -292 -131 -390 -146 -25 -4 -65 -10 -90 -15 -48 -9 -312 -6 -370 5
-115 21 -285 74 -375 116 -153 71 -364 253 -457 394 -186 285 -247 630 -167
950 38 150 100 277 211 432 72 100 86 139 62 185 -37 71 -102 101 -175 79 -51
-15 -85 -61 -104 -142 -8 -35 -20 -84 -25 -109 -15 -61 -55 -127 -88 -143 -81
-41 -160 27 -147 126 6 43 22 78 73 155 46 69 54 134 22 175 -40 51 -105 65
-165 38z"/>
<path d="M1770 2458 c-224 -21 -436 -119 -603 -278 -147 -139 -260 -343 -282
-505 -36 -277 65 -562 269 -752 84 -79 138 -116 242 -165 146 -68 254 -91 434
-92 132 -1 166 2 232 21 320 93 552 342 612 659 15 82 16 232 1 289 -76 301
-316 499 -615 510 -308 10 -560 -282 -495 -575 26 -121 135 -232 258 -264 187
-49 339 53 361 244 8 64 25 93 69 120 59 36 141 17 177 -42 38 -62 19 -205
-41 -319 -222 -418 -845 -362 -1048 94 -147 329 19 757 358 926 144 72 321
102 456 77 19 -4 35 -3 35 2 0 5 -6 9 -12 10 -7 0 -40 8 -73 16 -53 14 -99 20
-220 30 -16 1 -68 -1 -115 -6z"/>
</g>
</svg>
