<?xml version="1.0" encoding="utf-8"?>
<!-- Generator: Adobe Illustrator 23.1.0, SVG Export Plug-In . SVG Version: 6.00 Build 0)  -->
<svg version="1.1" id="Layer_1" xmlns="http://www.w3.org/2000/svg" xmlns:xlink="http://www.w3.org/1999/xlink" x="0px" y="0px"
	 viewBox="0 0 288.8 59.9" style="enable-background:new 0 0 288.8 59.9;" xml:space="preserve">
<style type="text/css">
	.st0{fill:none;stroke:#EF4136;stroke-width:3.7506;stroke-linecap:round;stroke-miterlimit:10;}
	.st1{fill:#EE2D24;}
</style>
<g>
	<g>
		<g>
			<path d="M102.7,20.5c-6,0-9.1,4.1-9.1,10.2v14.7h-8.2V13h5.5l0.9,7c2.4-4.5,6.7-7.5,12.8-7.5h1.4v8L102.7,20.5L102.7,20.5z"/>
			<path d="M141.7,29.2c0,9.2-7.4,16.6-16.7,16.6c-9.2,0-16.6-7.4-16.6-16.6s7.4-16.7,16.6-16.7C134.3,12.5,141.7,20,141.7,29.2z
				 M116.7,29.2c0,5.3,4,8.6,8.4,8.6c4.3,0,8.4-3.3,8.4-8.6s-4.1-8.7-8.4-8.7C120.7,20.5,116.7,23.8,116.7,29.2z"/>
			<path d="M147.9,0h8.3v45.4h-8.3V0z"/>
			<path d="M188.8,45.4l-0.4-4.6c-2.4,3.1-6.3,5-10.8,5c-9.2,0-15.8-7.4-15.8-16.6s6.6-16.7,15.8-16.7c4.5,0,8.4,2,10.8,5.1l0.4-4.6
				h5.5v32.4L188.8,45.4L188.8,45.4z M186.7,29.2c0-5.3-4.1-8.7-8.4-8.7c-4.3,0-8.4,3.4-8.4,8.7s4,8.6,8.4,8.6
				C182.6,37.8,186.7,34.5,186.7,29.2z"/>
			<path d="M212.7,45.4h-8.3V20.9h-4.2v-8h4.2V2.1h8.3V13h4.2v8h-4.2V45.4z"/>
			<path d="M250.8,21.3c1.4,3,1.4,7.4,0.5,10.2h-22.6c0,4.4,3.6,6.8,8,6.8c3.4,0,6.9-0.8,9.8-2.3l4.3,4.7c-3.5,2.6-8.4,5.1-14.1,5.1
				c-9.9,0-16.5-7.1-16.5-16.6c0-9.2,6.2-16.7,16.3-16.7C243.5,12.5,248.4,15.8,250.8,21.3z M229.1,26.3h14.8c0-0.8-0.3-1.8-0.8-2.6
				c-1.1-2.1-3.4-3.6-6.5-3.6C232.2,20,229.2,23.1,229.1,26.3z"/>
			<path d="M263.7,45.4h-9.5l12.6-16.8L254.8,13h9.5l7.2,8.9l7-8.9h9.5l-11.9,15.9l12.7,16.5h-9.5l-7.9-10L263.7,45.4z"/>
		</g>
	</g>
	<g>
		<path class="st0" d="M37.3,33.8"/>
		<path class="st1" d="M21.7,22c-0.3,1.2-0.5,2.3-0.6,3.5c-0.4,6,1.6,11.7,5.6,16c4.3,4.7,10.6,7.2,17.7,7.2
			c11.1,0,20.2-9,20.2-20.2c0-8.5-6.9-15.5-15.5-15.5c-6.5,0-11.8,5.3-11.8,11.8c0,4.8,3.9,8.8,8.8,8.8c3.5,0,6.4-2.8,6.4-6.4
			c0-1.8,1.4-3.2,3.2-3.2s3.2,1.4,3.2,3.2c0,7-5.7,12.8-12.8,12.8c-8.4,0-15.2-6.8-15.2-15.2c0-10,8.2-18.2,18.2-18.2
			c1.7,0,3.3,0.2,4.8,0.5c-2.8-1.1-5.8-1.7-9-1.7C34,5.5,24.9,12.4,21.7,22z"/>
		<path class="st1" d="M66.5,45.7c-5.5,5.9-13.4,9.6-22.2,9.6c-3.7,0-7.2-0.6-10.4-1.8c-2.2-0.7-4.4-1.6-6.1-2.8
			c-2.2-1.3-4.1-2.9-5.9-4.8c-3.6-3.8-5.9-8.5-6.8-13.5c0,0,0-0.1,0-0.1c0-0.1,0-0.2,0-0.2c-0.4-1.8-0.5-3.6-0.5-5.5
			c0-6.8,2.4-13,6.5-17.9c0.3-0.5,0.6-1,0.8-1.4c1-1.6-0.3-3.6-2-4.3c-1.6-0.6-3.8,0.3-4.5,2.4c-0.7,2.1-0.2,3.1-1.7,5.9
			c-0.8,1.4-2.1,1.8-3.1,1.4c-1.4-0.5-1.8-2-1.7-2.8c0.3-2.8,1.5-3,2.6-5.5c0.8-1.7-0.1-3.5-2.1-4C7.4,0,5.6,1.5,5.1,3
			c-1,3.1-3.5,7.5-4.8,17.6c-1.6,12.6,3.9,21.9,8.1,26.6c6.3,6.9,15.7,11.6,25,12.5c14.7,1.4,28.9-4.7,35.1-16.3
			C68,44.2,67.3,45,66.5,45.7z"/>
	</g>
</g>
</svg>
